<svg width="12" height="11" viewBox="0 0 12 11" fill="none" xmlns="http://www.w3.org/2000/svg">
<path d="M1.97443 6.4304L1.97798 4.61577H2.19815L3.94531 2.54545H5.68182L3.33452 5.28693H2.97585L1.97443 6.4304ZM0.603693 8V0.727273H2.11648V8H0.603693ZM4.01278 8L2.40767 5.62429L3.41619 4.5554L5.7848 8H4.01278ZM8.65678 10.1591C8.16673 10.1591 7.74651 10.0916 7.39613 9.95668C7.04812 9.8241 6.77113 9.64299 6.56516 9.41335C6.3592 9.18371 6.22544 8.92566 6.16388 8.6392L7.56303 8.45099C7.60565 8.5599 7.67312 8.6617 7.76545 8.75639C7.85778 8.85109 7.9797 8.92685 8.13121 8.98366C8.2851 9.04285 8.47212 9.07244 8.69229 9.07244C9.02137 9.07244 9.29244 8.99195 9.5055 8.83097C9.72094 8.67235 9.82866 8.40601 9.82866 8.03196V7.03409H9.76474C9.69845 7.18561 9.59902 7.32884 9.46644 7.46378C9.33387 7.59872 9.16341 7.70881 8.95508 7.79403C8.74674 7.87926 8.49817 7.92188 8.20934 7.92188C7.79978 7.92188 7.42691 7.82718 7.09073 7.63778C6.75692 7.44602 6.49059 7.15365 6.29173 6.76065C6.09523 6.36529 5.99698 5.86577 5.99698 5.26207C5.99698 4.64418 6.0976 4.12808 6.29883 3.71378C6.50006 3.29948 6.76758 2.98935 7.10138 2.78338C7.43756 2.57741 7.80569 2.47443 8.20579 2.47443C8.51119 2.47443 8.76687 2.52652 8.97283 2.63068C9.1788 2.73248 9.34452 2.86032 9.46999 3.0142C9.59783 3.16572 9.69608 3.31487 9.76474 3.46165H9.82156V2.54545H11.3237V8.05327C11.3237 8.51728 11.21 8.90554 10.9828 9.21804C10.7555 9.53054 10.4406 9.76491 10.0382 9.92116C9.63808 10.0798 9.17762 10.1591 8.65678 10.1591ZM8.68874 6.78551C8.93259 6.78551 9.13855 6.72514 9.30664 6.6044C9.4771 6.4813 9.6073 6.30611 9.69727 6.07884C9.7896 5.8492 9.83576 5.57457 9.83576 5.25497C9.83576 4.93537 9.79078 4.65838 9.70082 4.42401C9.61085 4.18726 9.48065 4.00379 9.31019 3.87358C9.13974 3.74337 8.93259 3.67827 8.68874 3.67827C8.44016 3.67827 8.23065 3.74574 8.06019 3.88068C7.88974 4.01326 7.76071 4.19792 7.67312 4.43466C7.58552 4.6714 7.54173 4.94484 7.54173 5.25497C7.54173 5.56984 7.58552 5.84209 7.67312 6.07173C7.76308 6.29901 7.8921 6.47538 8.06019 6.60085C8.23065 6.72396 8.44016 6.78551 8.68874 6.78551Z" fill="#252525"/>
</svg>
