<?xml version="1.0" encoding="UTF-8"?>
<!-- Generator: visioncortex VTracer 0.6.3 -->
<svg version="1.1" xmlns="http://www.w3.org/2000/svg" width="3600" height="3600">
<g fill="currentColor">
<path d="M0 0 C1188 0 2376 0 3600 0 C3600 1188 3600 2376 3600 3600 C2412 3600 1224 3600 0 3600 C0 2412 0 1224 0 0 Z " transform="translate(0,0)"/>
<path d="M0 0 C3.65 0.02 7.3 0.02 10.95 0.01 C30.67 0.04 49.9 1.67 69.38 4.71 C70.08 4.82 70.79 4.93 71.51 5.04 C85.12 7.14 98.45 9.72 111.66 13.63 C112.39 13.84 113.12 14.06 113.88 14.28 C179.45 33.82 238.52 66.87 289.18 113.07 C290.53 114.29 291.89 115.51 293.28 116.69 C299.66 122.12 305.54 128.03 311.44 133.96 C313.25 135.77 315.06 137.57 316.87 139.38 C322.69 145.19 328.39 151.04 333.69 157.34 C334.66 158.45 335.63 159.57 336.61 160.69 C343.56 168.71 350.23 176.91 356.69 185.34 C357.16 185.95 357.63 186.56 358.11 187.19 C383.56 220.43 404.93 255.92 423.69 293.34 C424.11 294.17 424.53 295.01 424.96 295.87 C432.66 311.33 439.17 327.35 445.69 343.34 C446.08 344.29 446.47 345.25 446.87 346.23 C461.54 382.49 472.43 420.91 479.14 459.42 C479.75 462.65 480.47 465.85 481.19 469.07 C482.85 476.71 483.84 484.39 484.75 492.15 C484.92 493.58 485.1 495.02 485.27 496.45 C485.52 498.56 485.77 500.67 486.02 502.78 C486.43 506.19 486.85 509.59 487.32 513 C497.4 588.53 490.99 671.64 474.25 745.77 C473.3 750.1 472.54 754.47 471.75 758.84 C469.77 769.56 467.11 780.09 464.38 790.64 C463.6 793.67 462.85 796.7 462.1 799.74 C457.53 818.22 452.51 836.54 446.77 854.69 C445.43 858.94 444.12 863.19 442.84 867.45 C439.38 878.91 435.8 890.25 431.52 901.43 C430.18 904.96 428.92 908.5 427.68 912.06 C424.14 922.21 420.35 932.26 416.44 942.27 C416.1 943.15 415.76 944.02 415.41 944.92 C399.59 985.38 381.76 1025.01 362.74 1064.05 C360.25 1069.17 357.83 1074.3 355.44 1079.46 C352.51 1085.74 349.36 1091.88 346.1 1097.99 C341.98 1105.73 337.99 1113.53 334 1121.33 C326.77 1135.45 319.4 1149.47 311.69 1163.34 C310.5 1165.49 309.31 1167.64 308.11 1169.79 C304.95 1175.51 301.77 1181.22 298.59 1186.93 C297.33 1189.19 296.07 1191.44 294.82 1193.7 C288.08 1205.81 281.27 1217.87 274.19 1229.79 C271.27 1234.73 268.39 1239.67 265.49 1244.62 C262.56 1249.63 259.62 1254.63 256.69 1259.64 C255.77 1261.2 254.85 1262.77 253.93 1264.34 C244.67 1280.11 235.22 1295.74 225.69 1311.34 C225.33 1311.92 224.98 1312.5 224.61 1313.1 C222.19 1317.07 219.75 1321.05 217.31 1325.02 C216.71 1326.01 216.1 1327 215.48 1328.02 C206.19 1343.13 196.36 1357.9 186.5 1372.65 C185.46 1374.2 184.42 1375.76 183.39 1377.31 C181.39 1380.3 179.4 1383.29 177.4 1386.28 C175.72 1388.79 174.04 1391.3 172.37 1393.82 C168.64 1399.45 164.85 1405.02 160.94 1410.52 C159.9 1411.99 158.86 1413.45 157.82 1414.92 C157.3 1415.65 156.78 1416.38 156.24 1417.14 C154.74 1419.27 153.24 1421.4 151.74 1423.54 C144.8 1433.43 137.69 1443.19 130.49 1452.9 C128.67 1455.37 126.85 1457.83 125.04 1460.3 C118.36 1469.4 111.61 1478.42 104.69 1487.34 C103.87 1488.4 103.05 1489.46 102.24 1490.53 C96.58 1497.92 90.85 1505.25 85.09 1512.56 C83.68 1514.35 82.27 1516.15 80.86 1517.95 C75.23 1525.15 69.51 1532.28 63.69 1539.34 C62.19 1541.17 60.69 1543 59.19 1544.84 C58.44 1545.75 57.7 1546.66 56.93 1547.59 C55.45 1549.4 53.98 1551.21 52.51 1553.02 C47.99 1558.56 43.41 1564.05 38.78 1569.49 C35.83 1572.97 32.93 1576.48 30.06 1580.02 C26.49 1584.42 22.75 1588.62 18.93 1592.81 C16.63 1595.41 14.43 1598.07 12.25 1600.77 C8.39 1605.55 4.3 1610.08 0.14 1614.6 C-2.19 1617.2 -4.38 1619.86 -6.56 1622.59 C-11.44 1628.64 -16.76 1634.24 -22.09 1639.9 C-24.99 1642.98 -27.79 1646.12 -30.55 1649.32 C-33.35 1652.53 -36.25 1655.65 -39.13 1658.78 C-42.02 1661.92 -44.9 1665.09 -47.75 1668.27 C-52.7 1673.79 -57.74 1679.23 -62.78 1684.68 C-64.26 1686.28 -65.74 1687.89 -67.22 1689.49 C-72.83 1695.59 -78.47 1701.66 -84.12 1707.71 C-84.73 1708.37 -85.34 1709.02 -85.97 1709.69 C-89.49 1713.45 -93.07 1717.13 -96.74 1720.73 C-98.35 1722.37 -99.83 1724.08 -101.31 1725.84 C-105.51 1730.72 -110.12 1735.2 -114.72 1739.71 C-117.76 1742.71 -120.7 1745.74 -123.47 1748.99 C-129.27 1755.72 -135.75 1761.83 -142.06 1768.06 C-143.77 1769.76 -145.48 1771.45 -147.19 1773.15 C-147.95 1773.9 -147.95 1773.9 -148.73 1774.67 C-151.36 1777.28 -153.85 1779.94 -156.24 1782.77 C-161.37 1788.65 -166.94 1794.1 -172.45 1799.61 C-173.67 1800.83 -174.89 1802.05 -176.11 1803.27 C-179.41 1806.57 -182.7 1809.86 -186 1813.16 C-189.46 1816.62 -192.92 1820.08 -196.38 1823.54 C-202.19 1829.35 -208 1835.15 -213.81 1840.96 C-220.51 1847.66 -227.21 1854.36 -233.91 1861.07 C-239.68 1866.84 -245.44 1872.61 -251.21 1878.37 C-254.65 1881.81 -258.09 1885.25 -261.53 1888.69 C-264.76 1891.93 -268 1895.16 -271.23 1898.39 C-272.42 1899.57 -273.6 1900.75 -274.78 1901.94 C-276.4 1903.56 -278.03 1905.18 -279.65 1906.8 C-280.56 1907.71 -281.46 1908.61 -282.39 1909.55 C-284.6 1911.7 -286.89 1913.73 -289.22 1915.74 C-293.12 1919.13 -296.81 1922.69 -300.45 1926.35 C-301.12 1927.02 -301.8 1927.69 -302.49 1928.38 C-304.72 1930.6 -306.94 1932.83 -309.16 1935.06 C-310.77 1936.66 -312.37 1938.27 -313.98 1939.87 C-318.33 1944.21 -322.67 1948.55 -327.01 1952.9 C-331.56 1957.45 -336.11 1962 -340.67 1966.56 C-348.8 1974.69 -356.93 1982.82 -365.07 1990.96 C-372.43 1998.33 -379.79 2005.69 -387.15 2013.05 C-395.72 2021.61 -404.29 2030.18 -412.86 2038.75 C-417.39 2043.28 -421.91 2047.81 -426.44 2052.33 C-430.7 2056.59 -434.96 2060.85 -439.22 2065.11 C-440.78 2066.67 -442.33 2068.23 -443.9 2069.79 C-446.03 2071.92 -448.17 2074.06 -450.3 2076.2 C-450.91 2076.81 -451.52 2077.42 -452.15 2078.04 C-455.85 2081.76 -459.35 2085.59 -462.76 2089.56 C-464.92 2092.04 -467.22 2094.34 -469.56 2096.65 C-470.02 2097.11 -470.49 2097.56 -470.96 2098.04 C-472.89 2099.95 -474.83 2101.86 -476.77 2103.77 C-481.93 2108.87 -486.99 2113.99 -491.7 2119.5 C-494.42 2122.6 -497.37 2125.46 -500.31 2128.34 C-504.61 2132.59 -508.77 2136.86 -512.68 2141.48 C-515.34 2144.5 -518.25 2147.28 -521.12 2150.11 C-523.75 2152.78 -526.19 2155.59 -528.63 2158.44 C-530.8 2160.89 -533.13 2163.17 -535.47 2165.46 C-537.25 2167.27 -538.91 2169.14 -540.57 2171.06 C-544.18 2175.21 -547.91 2179.22 -551.69 2183.21 C-556.57 2188.39 -561.4 2193.6 -566.14 2198.91 C-568.68 2201.74 -571.24 2204.54 -573.81 2207.34 C-582.03 2216.29 -590.18 2225.31 -598.06 2234.56 C-604.35 2241.94 -610.74 2249.21 -617.31 2256.34 C-621.07 2254.68 -624.16 2252.28 -627.37 2249.77 C-628.24 2249.11 -628.24 2249.11 -629.11 2248.42 C-633.62 2244.92 -638.04 2241.31 -642.44 2237.68 C-645.65 2235.06 -648.92 2232.51 -652.19 2229.96 C-657.37 2225.92 -662.42 2221.74 -667.42 2217.46 C-671.3 2214.15 -675.28 2210.97 -679.31 2207.84 C-684.52 2203.78 -689.61 2199.61 -694.63 2195.32 C-697.99 2192.45 -701.38 2189.63 -704.81 2186.84 C-709.42 2183.09 -713.95 2179.27 -718.48 2175.42 C-721.89 2172.52 -725.34 2169.66 -728.81 2166.84 C-734.49 2162.21 -740.08 2157.48 -745.66 2152.74 C-747.28 2151.36 -748.91 2149.99 -750.53 2148.61 C-757.9 2142.39 -765.23 2136.13 -772.55 2129.85 C-774.88 2127.85 -777.22 2125.84 -779.56 2123.83 C-781.31 2122.33 -783.07 2120.83 -784.82 2119.33 C-787.14 2117.34 -789.46 2115.36 -791.78 2113.37 C-814.55 2093.88 -814.55 2093.88 -825.14 2084.3 C-829.52 2080.35 -833.97 2076.48 -838.46 2072.66 C-844.98 2067.11 -851.37 2061.48 -857.62 2055.63 C-860.99 2052.49 -864.46 2049.53 -868.06 2046.65 C-872.41 2043.16 -876.32 2039.43 -880.21 2035.45 C-882.73 2032.92 -885.38 2030.6 -888.08 2028.28 C-890.87 2025.85 -893.59 2023.34 -896.31 2020.84 C-899.55 2017.86 -902.79 2014.89 -906.12 2012.02 C-910.76 2008.01 -915.21 2003.79 -919.68 1999.59 C-923.19 1996.3 -926.72 1993.04 -930.31 1989.84 C-936.42 1984.38 -942.38 1978.76 -948.36 1973.17 C-950.88 1970.8 -953.42 1968.44 -955.95 1966.07 C-957.19 1964.92 -958.43 1963.76 -959.67 1962.6 C-962.89 1959.59 -966.11 1956.59 -969.34 1953.59 C-970.34 1952.66 -970.34 1952.66 -971.36 1951.72 C-972.61 1950.55 -973.87 1949.38 -975.13 1948.22 C-978.73 1944.87 -982.23 1941.44 -985.68 1937.94 C-987.35 1936.3 -989.09 1934.78 -990.87 1933.27 C-995.51 1929.29 -999.76 1924.94 -1004.04 1920.57 C-1006.95 1917.62 -1009.91 1914.79 -1013.06 1912.09 C-1018.94 1907.01 -1024.3 1901.4 -1029.75 1895.88 C-1031.16 1894.45 -1032.58 1893.02 -1034 1891.59 C-1034.83 1890.75 -1035.66 1889.91 -1036.51 1889.04 C-1038.59 1887.03 -1040.67 1885.15 -1042.86 1883.28 C-1047.89 1878.9 -1052.58 1874.21 -1057.29 1869.49 C-1058.26 1868.52 -1059.24 1867.54 -1060.21 1866.57 C-1062.84 1863.95 -1065.46 1861.32 -1068.09 1858.7 C-1070.84 1855.94 -1073.6 1853.18 -1076.36 1850.42 C-1081 1845.79 -1085.63 1841.16 -1090.26 1836.52 C-1095.59 1831.18 -1100.93 1825.84 -1106.27 1820.51 C-1110.87 1815.91 -1115.48 1811.31 -1120.08 1806.71 C-1122.81 1803.97 -1125.55 1801.23 -1128.3 1798.49 C-1130.88 1795.91 -1133.45 1793.33 -1136.03 1790.75 C-1137.41 1789.37 -1138.8 1787.98 -1140.18 1786.6 C-1144.58 1782.19 -1148.83 1777.73 -1152.87 1773 C-1154.92 1770.63 -1157.12 1768.44 -1159.34 1766.24 C-1160.24 1765.36 -1161.13 1764.47 -1162.05 1763.56 C-1163.42 1762.21 -1163.42 1762.21 -1164.81 1760.84 C-1170.29 1755.43 -1175.68 1750.03 -1180.68 1744.19 C-1183.41 1741.09 -1186.36 1738.22 -1189.31 1735.34 C-1193.59 1731.11 -1197.72 1726.85 -1201.61 1722.26 C-1204.55 1718.94 -1207.75 1715.89 -1210.9 1712.78 C-1213.6 1710.04 -1216.1 1707.19 -1218.6 1704.27 C-1220.98 1701.58 -1223.54 1699.08 -1226.12 1696.59 C-1228.02 1694.64 -1229.8 1692.65 -1231.58 1690.6 C-1235.3 1686.32 -1239.16 1682.2 -1243.06 1678.09 C-1248.65 1672.18 -1254.18 1666.24 -1259.66 1660.23 C-1262.57 1657.05 -1265.51 1653.88 -1268.44 1650.71 C-1272.67 1646.13 -1276.86 1641.52 -1281.03 1636.87 C-1283.64 1633.97 -1286.29 1631.09 -1288.94 1628.21 C-1292.49 1624.34 -1295.99 1620.43 -1299.44 1616.46 C-1301.86 1613.72 -1304.33 1611.03 -1306.81 1608.34 C-1310.46 1604.38 -1314.05 1600.38 -1317.58 1596.32 C-1319.58 1594.02 -1321.64 1591.78 -1323.69 1589.52 C-1326.76 1586.13 -1329.7 1582.66 -1332.56 1579.09 C-1336.66 1574.01 -1341.04 1569.28 -1345.51 1564.54 C-1349.59 1560.17 -1353.4 1555.65 -1357.14 1550.98 C-1359.44 1548.18 -1361.85 1545.51 -1364.31 1542.84 C-1368.41 1538.39 -1372.24 1533.79 -1376.03 1529.09 C-1378.38 1526.26 -1380.82 1523.54 -1383.31 1520.84 C-1387.33 1516.47 -1391.11 1511.96 -1394.84 1507.34 C-1397.73 1503.83 -1400.7 1500.39 -1403.69 1496.96 C-1409.17 1490.67 -1414.58 1484.32 -1419.96 1477.94 C-1421.34 1476.3 -1422.73 1474.66 -1424.12 1473.02 C-1429.93 1466.19 -1435.65 1459.29 -1441.31 1452.34 C-1446.53 1445.95 -1451.76 1439.58 -1457 1433.21 C-1457.89 1432.13 -1457.89 1432.13 -1458.8 1431.02 C-1461.82 1427.35 -1464.84 1423.69 -1467.87 1420.03 C-1477.71 1408.09 -1487.52 1396.12 -1497.16 1384.01 C-1498.88 1381.88 -1500.6 1379.75 -1502.34 1377.63 C-1508.28 1370.34 -1514.15 1363.02 -1519.86 1355.54 C-1526.24 1347.19 -1532.79 1338.97 -1539.37 1330.77 C-1543.44 1325.71 -1547.44 1320.61 -1551.39 1315.45 C-1554.94 1310.81 -1558.53 1306.2 -1562.12 1301.59 C-1568.31 1293.64 -1574.45 1285.65 -1580.56 1277.64 C-1582.46 1275.15 -1584.36 1272.66 -1586.26 1270.16 C-1593.9 1260.16 -1601.49 1250.13 -1609.03 1240.05 C-1610.91 1237.54 -1612.8 1235.03 -1614.69 1232.52 C-1620.33 1225 -1625.9 1217.41 -1631.48 1209.83 C-1633.27 1207.39 -1635.07 1204.96 -1636.87 1202.52 C-1667.32 1161.3 -1696.71 1119.17 -1723.31 1075.34 C-1723.9 1074.37 -1723.9 1074.37 -1724.5 1073.38 C-1727.14 1069.05 -1729.73 1064.7 -1732.31 1060.34 C-1732.82 1059.48 -1733.32 1058.63 -1733.85 1057.75 C-1742.17 1043.69 -1750.17 1029.49 -1757.85 1015.08 C-1759.18 1012.59 -1760.51 1010.11 -1761.85 1007.63 C-1778.76 976.15 -1795.09 942.65 -1805.94 908.52 C-1807.23 904.48 -1808.62 900.53 -1810.23 896.6 C-1821.34 869.11 -1828.15 838.49 -1833.31 809.34 C-1833.51 808.27 -1833.51 808.27 -1833.71 807.18 C-1834.67 801.91 -1835.53 796.63 -1836.31 791.34 C-1836.44 790.49 -1836.57 789.64 -1836.7 788.76 C-1838.79 774.43 -1839.78 760.1 -1840.5 745.65 C-1840.54 744.79 -1840.58 743.94 -1840.63 743.06 C-1842.2 711.04 -1840.98 678.92 -1835.31 647.34 C-1835.13 646.27 -1834.94 645.19 -1834.75 644.09 C-1822.95 575.85 -1793.95 511.22 -1753.31 455.34 C-1752.88 454.74 -1752.45 454.15 -1752 453.54 C-1749.49 450.1 -1746.92 446.71 -1744.31 443.34 C-1743.89 442.79 -1743.48 442.25 -1743.04 441.69 C-1734.05 430.04 -1724.7 418.75 -1714.63 408 C-1712.04 405.23 -1709.52 402.42 -1707.04 399.55 C-1702.86 394.75 -1698.38 390.26 -1693.87 385.77 C-1693.07 384.96 -1692.26 384.15 -1691.43 383.31 C-1687.11 379 -1682.71 374.85 -1678.09 370.87 C-1675.67 368.79 -1673.34 366.62 -1671 364.46 C-1665.6 359.54 -1660.01 354.91 -1654.31 350.34 C-1653.19 349.42 -1652.07 348.51 -1650.95 347.6 C-1631.04 331.42 -1610.05 316.9 -1588.2 303.49 C-1586.98 302.75 -1585.76 302 -1584.55 301.24 C-1549.29 279.38 -1511.42 262.05 -1472.31 248.34 C-1471.5 248.05 -1470.68 247.76 -1469.84 247.46 C-1457 242.95 -1444.04 239.29 -1430.84 235.98 C-1428.66 235.43 -1426.5 234.85 -1424.34 234.25 C-1394.51 225.99 -1364.1 221.82 -1333.31 219.34 C-1332.13 219.24 -1330.94 219.14 -1329.73 219.04 C-1318.19 218.2 -1306.66 218.15 -1295.1 218.15 C-1291.71 218.15 -1288.33 218.13 -1284.95 218.11 C-1270.95 218.08 -1257.22 218.8 -1243.31 220.34 C-1242.1 220.46 -1240.88 220.59 -1239.63 220.72 C-1216.9 223.12 -1194.69 227.21 -1172.48 232.58 C-1169.49 233.29 -1166.49 233.98 -1163.49 234.67 C-1108.71 247.43 -1051.85 270.87 -1004.34 301.06 C-1001.82 302.64 -999.29 304.2 -996.76 305.75 C-972.05 320.99 -948.37 337.46 -925.99 355.96 C-923.74 357.8 -921.47 359.6 -919.19 361.4 C-908.69 369.78 -898.69 378.71 -888.88 387.88 C-886.9 389.72 -884.9 391.52 -882.89 393.33 C-876.05 399.55 -869.48 406.05 -862.94 412.59 C-862.46 413.06 -861.99 413.53 -861.5 414.02 C-856.44 419.05 -851.51 424.12 -846.86 429.54 C-844.47 432.32 -841.95 434.97 -839.44 437.65 C-834.95 442.47 -830.7 447.41 -826.57 452.55 C-824.57 455.02 -822.51 457.45 -820.43 459.87 C-813.95 467.41 -807.91 475.25 -801.93 483.19 C-800.36 485.27 -798.79 487.34 -797.21 489.41 C-780.55 511.34 -765.08 534.49 -751.31 558.34 C-750.67 559.43 -750.67 559.43 -750.02 560.54 C-720.76 610.71 -697.38 662.97 -679.37 718.21 C-679.15 718.91 -678.92 719.6 -678.68 720.32 C-675.82 729.09 -673.34 737.88 -671.17 746.85 C-670.22 750.72 -669.13 754.52 -668 758.34 C-665.51 767.04 -663.56 775.87 -661.62 784.71 C-661.47 785.39 -661.32 786.08 -661.17 786.78 C-659.31 795.26 -657.64 803.75 -656.31 812.34 C-654.03 808.91 -653.23 805.64 -652.29 801.7 C-652.1 800.94 -651.91 800.18 -651.72 799.39 C-651.12 796.96 -650.53 794.52 -649.94 792.09 C-649.16 788.91 -648.38 785.74 -647.6 782.57 C-647.41 781.79 -647.22 781 -647.02 780.2 C-645.5 774.04 -643.89 767.92 -642.24 761.79 C-640.81 756.46 -639.44 751.12 -638.06 745.77 C-627.67 705.61 -627.67 705.61 -623.23 690.92 C-621.22 684.2 -619.47 677.42 -617.69 670.65 C-614.51 658.62 -611.15 646.66 -607.69 634.71 C-607.46 633.94 -607.24 633.17 -607.01 632.37 C-601.61 613.77 -596.04 595.23 -590.19 576.77 C-589.91 575.9 -589.63 575.03 -589.35 574.13 C-584.25 558.06 -578.89 542.1 -573.34 526.18 C-571.91 522.07 -570.5 517.95 -569.12 513.82 C-559.65 485.62 -548.55 457.87 -536.71 430.58 C-535.43 427.6 -534.15 424.62 -532.88 421.64 C-531.74 418.98 -530.6 416.32 -529.46 413.66 C-528.66 411.8 -527.87 409.94 -527.08 408.08 C-523.45 399.68 -519.47 391.51 -515.33 383.36 C-513.66 380.05 -512.02 376.73 -510.38 373.41 C-503.34 359.2 -496.27 345.06 -488.31 331.34 C-487.71 330.29 -487.11 329.25 -486.5 328.18 C-470.02 299.52 -452.46 271.59 -432.31 245.34 C-431.55 244.33 -430.79 243.32 -430 242.29 C-416.93 225.09 -403.14 208.45 -388.39 192.66 C-385.95 190.05 -383.58 187.38 -381.2 184.71 C-376.25 179.19 -371.07 173.94 -365.82 168.71 C-364.24 167.14 -362.68 165.57 -361.11 163.99 C-356.22 159.1 -351.29 154.31 -346.04 149.81 C-343.45 147.6 -340.99 145.28 -338.5 142.96 C-333.93 138.74 -329.24 134.73 -324.39 130.83 C-322.08 128.96 -319.79 127.07 -317.51 125.16 C-292.51 104.23 -265.44 85.81 -237.31 69.34 C-236.56 68.89 -235.81 68.45 -235.03 67.99 C-184.7 38.31 -129.85 17.04 -72.29 6.88 C-69.86 6.43 -67.44 5.97 -65.01 5.46 C-43.59 1.05 -21.83 -0.15 0 0 Z " transform="translate(2475.311767578125,716.663818359375)"/>
<path d="M0 0 C3.78 0.92 5.57 1.39 7.88 4.62 C8.43 5.8 8.43 5.8 9 7 C6 7 6 7 4.39 5.47 C3.87 4.82 3.35 4.17 2.81 3.5 C2.28 2.85 1.75 2.2 1.21 1.53 C0.81 1.03 0.41 0.52 0 0 Z " transform="translate(1427,2594)"/>
<path d="M0 0 C0.99 0.66 1.98 1.32 3 2 C1.68 4.31 0.36 6.62 -1 9 C-1.66 8.67 -2.32 8.34 -3 8 C-1.12 2.25 -1.12 2.25 0 0 Z " transform="translate(1956,1108)"/>
<path d="M0 0 C2 3 2 3 2 6 C1.01 6.33 0.02 6.66 -1 7 C-1.66 5.35 -2.32 3.7 -3 2 C-2.01 2 -1.02 2 0 2 C0 1.34 0 0.68 0 0 Z " transform="translate(1797,1441)"/>
<path d="M0 0 C0.33 0 0.66 0 1 0 C1 3.63 1 7.26 1 11 C0.67 10.34 0.34 9.68 0 9 C-0.99 9.33 -1.98 9.66 -3 10 C-2.67 8.68 -2.34 7.36 -2 6 C-1.34 6 -0.68 6 0 6 C0 4.02 0 2.04 0 0 Z " transform="translate(2963,1242)"/>
</g>
</svg>
